<svg width="16" height="16" viewBox="0 0 16 16" fill="none" xmlns="http://www.w3.org/2000/svg">
<g clip-path="url(#clip0_149_1580)">
<path d="M4.31382 7.57645L2.31573 6.43644V4.14968L4.31382 3.00967L6.31189 4.14968V6.43644L4.31382 7.57645ZM2.59845 6.26828L4.31382 7.24687L6.02918 6.26828V4.3176L4.31382 3.33901L2.59845 4.3176V6.26828Z" fill="#DC3D3D"/>
<path d="M1.99808 11.7944L0 10.6543V8.36758L1.99808 7.22758L3.99616 8.36758V10.6543L1.99808 11.7944ZM0.282711 10.4864L1.99808 11.465L3.71345 10.4864V8.53575L1.99808 7.55715L0.282711 8.53575V10.4864Z" fill="#DC3D3D"/>
<path d="M6.62943 11.7944L4.63135 10.6543V8.36758L6.62943 7.22758L8.62752 8.36758V10.6543L6.62943 11.7944ZM4.91431 10.4864L6.62968 11.465L8.34504 10.4864V8.53575L6.62968 7.55715L4.91431 8.53575V10.4864Z" fill="#DC3D3D"/>
<path d="M11.6862 11.7849L9.68817 10.6449V8.35817L11.6862 7.21816L13.6843 8.35817V10.6449L11.6862 11.7849ZM9.97088 10.4768L11.6862 11.4554L13.4016 10.4768V8.52609L11.6862 7.5475L9.97088 8.52609V10.4768Z" fill="#DC3D3D"/>
<path d="M9.37089 7.56683L7.3728 6.42683V4.14007L9.37089 3.00006L11.369 4.14007V6.42683L9.37089 7.56683ZM7.65553 6.25866L9.37089 7.23726L11.0862 6.25866V4.30799L9.37089 3.3294L7.65553 4.30799V6.25866Z" fill="#DC3D3D"/>
<path d="M14.002 7.56682L12.004 6.42681V4.14005L14.002 3.00005L16.0001 4.14005V6.42681L14.002 7.56682ZM12.2867 6.25865L14.002 7.23724L15.7174 6.25865V4.30798L14.002 3.32938L12.2867 4.30798V6.25865Z" fill="#DC3D3D"/>
</g>
<defs>
<clipPath id="clip0_149_1580">
<rect width="16" height="16" fill="white"/>
</clipPath>
</defs>
</svg>
