<svg width="80" height="80" viewBox="0 0 80 80" fill="none" xmlns="http://www.w3.org/2000/svg">
<g clip-path="url(#clip0_149_1558)">
<path d="M21.5692 37.8822L11.5787 32.1822V20.7484L21.5692 15.0484L31.5595 20.7484V32.1822L21.5692 37.8822ZM12.9923 31.3414L21.5692 36.2344L30.146 31.3414V21.588L21.5692 16.695L12.9923 21.588V31.3414Z" fill="#DC3D3D"/>
<path d="M9.99042 58.9717L0 53.2717V41.8379L9.99042 36.1379L19.9808 41.8379V53.2717L9.99042 58.9717ZM1.41356 52.4321L9.99042 57.3251L18.5672 52.4321V42.6787L9.99042 37.7857L1.41356 42.6787V52.4321Z" fill="#DC3D3D"/>
<path d="M33.1472 58.9717L23.1568 53.2717V41.8379L33.1472 36.1379L43.1376 41.8379V53.2717L33.1472 58.9717ZM24.5716 52.4321L33.1485 57.3251L41.7253 52.4321V42.6787L33.1485 37.7857L24.5716 42.6787V52.4321Z" fill="#DC3D3D"/>
<path d="M58.4312 58.9247L48.4408 53.2247V41.7909L58.4312 36.0908L68.4216 41.7909V53.2247L58.4312 58.9247ZM49.8544 52.3839L58.4312 57.2768L67.008 52.3839V42.6305L58.4312 37.7375L49.8544 42.6305V52.3839Z" fill="#DC3D3D"/>
<path d="M46.8537 37.834L36.8633 32.134V20.7002L46.8537 15.0001L56.8441 20.7002V32.134L46.8537 37.834ZM38.2769 31.2931L46.8537 36.1861L55.4305 31.2931V21.5398L46.8537 16.6468L38.2769 21.5398V31.2931Z" fill="#DC3D3D"/>
<path d="M70.0102 37.8341L60.0198 32.1341V20.7003L70.0102 15.0002L80.0006 20.7003V32.1341L70.0102 37.8341ZM61.4334 31.2932L70.0102 36.1862L78.5871 31.2932V21.5399L70.0102 16.6469L61.4334 21.5399V31.2932Z" fill="#DC3D3D"/>
</g>
<defs>
<clipPath id="clip0_149_1558">
<rect width="80" height="80" fill="white"/>
</clipPath>
</defs>
</svg>
