<svg width="48" height="27" viewBox="0 0 48 27" fill="none" xmlns="http://www.w3.org/2000/svg">
<path d="M12.9415 13.7294L6.94727 10.3094V3.44906L12.9415 0.0290527L18.9357 3.44906V10.3094L12.9415 13.7294ZM7.7954 9.80486L12.9415 12.7406L18.0876 9.80486V3.95284L12.9415 1.01706L7.7954 3.95284V9.80486Z" fill="#DC3D3D"/>
<path d="M5.99425 26.3831L0 22.963V16.1028L5.99425 12.6827L11.9885 16.1028V22.963L5.99425 26.3831ZM0.848134 22.4593L5.99425 25.3951L11.1403 22.4593V16.6072L5.99425 13.6715L0.848134 16.6072V22.4593Z" fill="#DC3D3D"/>
<path d="M19.8888 26.3831L13.8945 22.963V16.1028L19.8888 12.6827L25.883 16.1028V22.963L19.8888 26.3831ZM14.7434 22.4593L19.8895 25.3951L25.0356 22.4593V16.6072L19.8895 13.6715L14.7434 16.6072V22.4593Z" fill="#DC3D3D"/>
<path d="M35.0587 26.3547L29.0645 22.9347V16.0744L35.0587 12.6544L41.0529 16.0744V22.9347L35.0587 26.3547ZM29.9126 22.4302L35.0587 25.366L40.2048 22.4302V16.5782L35.0587 13.6424L29.9126 16.5782V22.4302Z" fill="#DC3D3D"/>
<path d="M28.1124 13.7003L22.1182 10.2803V3.42002L28.1124 0L34.1067 3.42002V10.2803L28.1124 13.7003ZM22.9663 9.77581L28.1124 12.7116L33.2585 9.77581V3.92379L28.1124 0.988006L22.9663 3.92379V9.77581Z" fill="#DC3D3D"/>
<path d="M42.0059 13.7003L36.0117 10.2803V3.42002L42.0059 0L48.0002 3.42002V10.2803L42.0059 13.7003ZM36.8599 9.77581L42.0059 12.7116L47.1521 9.77581V3.92379L42.0059 0.988006L36.8599 3.92379V9.77581Z" fill="#DC3D3D"/>
</svg>
