<svg width="40" height="40" viewBox="0 0 40 40" fill="none" xmlns="http://www.w3.org/2000/svg">
<g clip-path="url(#clip0_146_1534)">
<path d="M39.9099 1.715C40.0008 1.48784 40.023 1.23899 39.9739 0.999302C39.9247 0.759611 39.8063 0.539621 39.6333 0.366605C39.4602 0.193589 39.2402 0.0751553 39.0006 0.0259867C38.7609 -0.023182 38.512 -0.000923203 38.2849 0.0900035L1.91735 14.6375H1.91485L0.784853 15.0875C0.570828 15.1729 0.384566 15.3157 0.246642 15.5003C0.108717 15.6849 0.0244976 15.904 0.00328626 16.1335C-0.0179251 16.3629 0.0246972 16.5938 0.126445 16.8005C0.228193 17.0072 0.385106 17.1818 0.579853 17.305L1.60485 17.955L1.60735 17.96L14.0949 25.905L22.0399 38.3925L22.0449 38.3975L22.6949 39.4225C22.8184 39.6165 22.9931 39.7726 23.1997 39.8737C23.4063 39.9749 23.6368 40.017 23.8658 39.9955C24.0948 39.9741 24.3134 39.8899 24.4976 39.7522C24.6818 39.6144 24.8245 39.4286 24.9099 39.215L39.9099 1.715ZM35.3274 6.44L16.5924 25.175L16.0549 24.33C15.9564 24.1749 15.8249 24.0435 15.6699 23.945L14.8249 23.4075L33.5599 4.6725L36.5049 3.495L35.3274 6.44Z" fill="#4B576B"/>
</g>
<defs>
<clipPath id="clip0_146_1534">
<rect width="40" height="40" fill="white"/>
</clipPath>
</defs>
</svg>
